0
SECTION
2
HEADER
9
$ANGDIR
70
0
9
$CHAMFERA
40
10
9
$CHAMFERB
40
10
9
$CLAYER
8
Layer_1
9
$EXTMAX
10
181.38381609211638
20
277.58977156213837
9
$EXTMIN
10
4.9524142312578476
20
135.03921444548746
9
$LIMMAX
10
420
20
297
9
$LIMMIN
10
0
20
0
9
$LTSCALE
40
10
9
$PLINEGEN
70
0
9
$TEXTSIZE
40
20
9
$GRIDUNIT
10
10
20
10
9
$SNAPUNIT
10
1
20
1
0
ENDSEC
0
SECTION
2
TABLES
0
TABLE
2
STYLE
70
1
0
STYLE
2
STANDARD
70
0
40
0
41
1
50
0
71
0
42
0.20000000000000001
3
txt
4

0
ENDTAB
0
TABLE
2
LTYPE
70
14
0
LTYPE
2
CONTINUOUS
70
0
3
Solid line
72
65
73
0
40
0
0
LTYPE
2
DOT
70
0
3
............................................
72
65
73
2
40
0.25
49
0
49
-0.25
0
LTYPE
2
HIDDEN
70
0
3
_ _ _ _ _ _ _ _ _ _ _ _ _ _ _ _ _ _ _ _ _ _ 
72
65
73
2
40
0.375
49
0.25
49
-0.125
0
LTYPE
2
TSLONGDASH
70
0
3
__ __ __ __ __ __ __ __ __ __ __ __ __ __ _ 
72
65
73
2
40
1.28
49
1
49
-0.28000000000000003
0
LTYPE
2
TSDASHDOT
70
0
3
______ . ______ . ______ . ______ . ______ .
72
65
73
4
40
1.28
49
1
49
-0.14000000000000001
49
0
49
-0.14000000000000001
0
LTYPE
2
TSCENTER
70
0
3
______ _ ______ _ ______ _ ______ _ ______ _
72
65
73
4
40
2
49
1.5
49
-0.17999999999999999
49
0.14000000000000001
49
-0.17999999999999999
0
LTYPE
2
TSPHANTOM
70
0
3
_____ _ _ _____ _ _ _____ _ _ _____ _ _ ____
72
65
73
6
40
2.5
49
1.6299999999999999
49
-0.19
49
0.14999999999999999
49
-0.19
49
0.14999999999999999
49
-0.19
0
LTYPE
2
DASHED
70
0
3
__ __ __ __ __ __ __ __ __ __ __ __ __ __ __
72
65
73
2
40
0.75
49
0.5
49
-0.25
0
LTYPE
2
CENTER
70
0
3
____ _ ____ _ ____ _ ____ _ ____ _ ____ _ __
72
65
73
4
40
2
49
1.25
49
-0.25
49
0.25
49
-0.25
0
LTYPE
2
PHANTOM
70
0
3
_____ _ _ _____ _ _ _____ _ _ _____ _ _ ____
72
65
73
6
40
2.5
49
1.25
49
-0.25
49
0.25
49
-0.25
49
0.25
49
-0.25
0
LTYPE
2
DASHDOT
70
0
3
__ . __ . __ . __ . __ . __ . __ . __ . __ .
72
65
73
4
40
1
49
0.5
49
-0.25
49
0
49
-0.25
0
LTYPE
2
BORDER
70
0
3
__ __ . __ __ . __ __ . __ __ . __ __ . __ _
72
65
73
6
40
1.75
49
0.5
49
-0.25
49
0.5
49
-0.25
49
0
49
-0.25
0
LTYPE
2
DIVIDE
70
0
3
__ . . __ . . __ . . __ . . __ . . __ . . __
72
65
73
6
40
1.25
49
0.5
49
-0.25
49
0
49
-0.25
49
0
49
-0.25
0
ENDTAB
0
TABLE
2
LAYER
70
4
0
LAYER
2
Layer_1
70
0
62
7
6
CONTINUOUS
0
LAYER
2
Layer_2
70
0
62
7
6
CONTINUOUS
0
LAYER
2
Layer_3
70
0
62
7
6
CONTINUOUS
0
LAYER
2
0
70
0
62
7
6
CONTINUOUS
0
ENDTAB
0
ENDSEC
0
SECTION
2
ENTITIES
0
CIRCLE
8
0
6
CONTINUOUS
62
1
10
131.38381609211635
20
222.40053918627464
40
3.5000000000000284
0
ARC
8
0
6
CONTINUOUS
62
1
10
131.38381609475627
20
242.00053918627461
40
2.5
50
90
51
270
0
ARC
8
0
6
CONTINUOUS
62
1
10
131.38381609211635
20
222.40053918627464
40
22.100000000000023
50
270
51
90
0
ARC
8
0
6
CONTINUOUS
62
1
10
131.38381608947643
20
202.80053918627462
40
2.5
50
90
51
270
0
ARC
8
0
6
CONTINUOUS
62
1
10
131.38381609211635
20
222.40053918627464
40
17.100000000000023
50
270
51
90
0
ARC
8
0
6
CONTINUOUS
62
1
10
131.38381609211635
20
222.40053918627459
40
10.900000000000091
50
90
51
119.99999999571266
0
ARC
8
0
6
CONTINUOUS
62
1
10
131.38381609324773
20
230.80053918627468
40
2.5
50
270
51
90
0
ARC
8
0
6
CONTINUOUS
62
1
10
131.38381609211635
20
222.40053918627464
40
5.9000000000000341
50
90
51
270
0
ARC
8
0
6
CONTINUOUS
62
1
10
131.38381609098496
20
214.00053918627461
40
2.5
50
270
51
90
0
ARC
8
0
6
CONTINUOUS
62
1
10
131.38381609211635
20
222.40053918627464
40
10.899999999999997
50
239.99999998885318
51
270
0
LINE
8
0
6
CONTINUOUS
62
1
10
125.93381609084494
20
212.96086228575831
11
106.38381608628413
21
179.09926900041992
0
ARC
8
0
6
CONTINUOUS
62
1
10
131.38381609211635
20
222.40053918627464
40
50.000000000000021
50
239.99999998885306
51
119.9999999957127
0
LINE
8
0
6
CONTINUOUS
62
1
10
106.3838160979486
20
265.7018093788638
11
125.93381609338778
21
231.84021608825904
0
ARC
8
Layer_1
6
CONTINUOUS
62
1
10
145.2838160921163
20
222.40053918627464
40
2.0000000003520286
50
272.95875245275204
51
87.041247552609946
0
LINE
8
Layer_1
6
CONTINUOUS
62
1
10
133.7268909947731
20
225.00053918637855
11
145.38705014005629
21
224.39787309209657
0
LINE
8
Layer_1
6
CONTINUOUS
62
1
10
133.72689099457324
20
219.80053918670683
11
145.3870501399027
21
220.40320528009227
0
LINE
8
0
6
CONTINUOUS
62
1
10
67.161529558616309
20
248.74004039416556
11
77.680425463175411
21
266.95930254039013
0
ARC
8
0
6
CONTINUOUS
62
1
10
54.952414111541543
20
227.59323212435805
40
22.500000000000004
50
64.682416864118437
51
115.3175831410263
0
LINE
8
0
6
CONTINUOUS
62
1
10
32.224402759907626
20
266.95930254039018
11
42.743298664466764
21
248.74004039416556
0
ARC
8
0
6
CONTINUOUS
62
1
10
54.952414111541543
20
227.59323212435805
40
47.500000000000028
50
62.519307522325363
51
117.48069248281936
0
CIRCLE
8
0
6
CONTINUOUS
62
1
10
54.952414111541543
20
219.19323212435805
40
1
0
CIRCLE
8
0
6
CONTINUOUS
62
1
10
54.952414111541543
20
247.19323212435805
40
1
0
LINE
8
0
6
CONTINUOUS
62
1
10
14.452414111541543
20
177.58977100457059
11
11.452414111541543
21
177.58977100457059
0
LINE
8
0
6
CONTINUOUS
62
1
10
10.952414111541543
20
172.58977100457062
11
4.9562202364855352
21
172.58977100457059
0
LINE
8
0
6
CONTINUOUS
62
1
10
4.9562202364855352
20
172.58977100457059
11
4.9524142312578476
21
227.58977211970603
0
ARC
8
0
6
CONTINUOUS
62
1
10
54.952414231257876
20
227.58977156213831
40
49.999999760490205
50
0
51
180
0
LINE
8
0
6
CONTINUOUS
62
1
10
104.95241399174807
20
227.58977100457062
11
104.95241399174807
21
172.58977100457059
0
ARC
8
Layer_1
6
CONTINUOUS
62
1
10
33.956453567476522
20
267.95930254039018
40
2.0000000000000213
50
117.48069248281922
51
209.99999999571241
0
ARC
8
Layer_1
6
CONTINUOUS
62
1
10
44.47534947203566
20
249.74004039416562
40
2.0000000000000449
50
209.99999999571384
51
295.31758313588142
0
ARC
8
Layer_1
6
CONTINUOUS
62
1
10
65.429478751047426
20
249.74004039416556
40
1.999999999999972
50
244.68241685897351
51
329.99999999914263
0
ARC
8
Layer_1
6
CONTINUOUS
62
1
10
75.948374655606571
20
267.95930254039013
40
1.9999999999999671
50
329.99999999914201
51
62.519307522325562
0
LINE
8
Layer_1
6
CONTINUOUS
62
1
10
10.952414111541543
20
172.58977100457062
11
11.452414111541543
21
172.58977100457062
0
LINE
8
Layer_1
6
CONTINUOUS
62
1
10
11.452414111541543
20
172.58977100457062
11
11.452414111541543
21
177.58977100457059
0
LINE
8
Layer_1
6
CONTINUOUS
62
1
10
14.452414111541543
20
172.58977100457062
11
14.452414111541543
21
177.58977100457059
0
LINE
8
Layer_1
6
CONTINUOUS
62
1
10
98.452414111541543
20
172.58977100457062
11
98.452414111541543
21
177.58977100457059
0
LINE
8
Layer_1
6
CONTINUOUS
62
1
10
95.452414111541543
20
172.58977100457062
11
95.452414111541543
21
177.58977100457059
0
LINE
8
Layer_1
6
CONTINUOUS
62
1
10
14.452414111541543
20
172.58977100457062
11
95.452414111541543
21
172.58977100457062
0
LINE
8
Layer_1
6
CONTINUOUS
62
1
10
95.452414111541543
20
177.58977100457059
11
98.452414111541543
21
177.58977100457059
0
LINE
8
Layer_1
6
CONTINUOUS
62
1
10
98.452414111541543
20
172.58977100457062
11
104.95241399174807
21
172.58977100457059
0
POLYLINE
8
0
6
CONTINUOUS
62
1
66
1
10
0
20
0
70
129
40
0
41
0
0
VERTEX
8
0
6
CONTINUOUS
62
1
10
57.153044355265898
20
165.98712587534658
0
VERTEX
8
0
6
CONTINUOUS
62
1
10
74.153044355265905
20
165.98712587534658
0
VERTEX
8
0
6
CONTINUOUS
62
1
10
74.153044355265877
20
160.98712587534658
0
VERTEX
8
0
6
CONTINUOUS
62
1
10
77.153044355265877
20
160.98712587534658
0
VERTEX
8
0
6
CONTINUOUS
62
1
10
77.153044355265905
20
165.98712587534658
0
VERTEX
8
0
6
CONTINUOUS
62
1
10
81.153044355265877
20
165.98712587534658
0
VERTEX
8
0
6
CONTINUOUS
62
1
10
81.153044355265877
20
155.98712587534658
0
VERTEX
8
0
6
CONTINUOUS
62
1
10
57.15304435526587
20
155.98712587534658
0
VERTEX
8
0
6
CONTINUOUS
62
1
10
57.153044355265898
20
165.98712587534658
0
SEQEND
0
POLYLINE
8
0
6
CONTINUOUS
62
1
66
1
10
0
20
0
70
128
40
0
41
0
0
VERTEX
8
0
6
CONTINUOUS
62
1
10
56.353661978443533
20
150.56192524792488
0
VERTEX
8
0
6
CONTINUOUS
62
1
10
56.353661978443562
20
140.56192524792488
0
VERTEX
8
0
6
CONTINUOUS
62
1
10
73.353661978443569
20
140.56192524792488
0
VERTEX
8
0
6
CONTINUOUS
62
1
10
73.353661978443569
20
145.56192524792488
0
VERTEX
8
0
6
CONTINUOUS
62
1
10
76.35366197844354
20
145.56192524792488
0
VERTEX
8
0
6
CONTINUOUS
62
1
10
76.353661978443569
20
140.56192524792488
0
VERTEX
8
0
6
CONTINUOUS
62
1
10
80.35366197844354
20
140.56192524792488
0
VERTEX
8
0
6
CONTINUOUS
62
1
10
80.35366197844354
20
150.56192524792488
0
SEQEND
0
POLYLINE
8
0
6
CONTINUOUS
62
7
66
1
10
0
20
0
70
129
40
0
41
0
0
VERTEX
8
0
6
CONTINUOUS
62
7
10
9.0960341319782856
20
139.99787331952479
0
VERTEX
8
0
6
CONTINUOUS
62
7
10
21.096034131978286
20
139.99787331952479
0
VERTEX
8
0
6
CONTINUOUS
62
7
10
21.096034131978286
20
162.99787331952479
0
VERTEX
8
0
6
CONTINUOUS
62
7
10
9.0960341319782856
20
162.99787331952479
0
VERTEX
8
0
6
CONTINUOUS
62
7
10
9.0960341319782856
20
139.99787331952479
0
SEQEND
0
CIRCLE
8
0
6
CONTINUOUS
62
7
10
15.096034131978286
20
137.59787331952475
40
1
0
CIRCLE
8
0
6
CONTINUOUS
62
7
10
15.096034131978286
20
165.59787331952475
40
1
0
POLYLINE
8
0
6
CONTINUOUS
62
7
66
1
10
0
20
0
70
128
40
0
41
0
0
VERTEX
8
0
6
CONTINUOUS
62
7
10
25.096034131978286
20
135.09787331952475
0
VERTEX
8
0
6
CONTINUOUS
62
7
10
5.0960341319782856
20
135.09787331952475
0
VERTEX
8
0
6
CONTINUOUS
62
7
10
5.0960341319782856
20
168.09787331952475
0
VERTEX
8
0
6
CONTINUOUS
62
7
10
25.096034131978286
20
168.09787331952475
0
SEQEND
0
CIRCLE
8
0
6
CONTINUOUS
62
7
10
90.82080202165406
20
158.43919511294416
40
1
0
CIRCLE
8
0
6
CONTINUOUS
62
7
10
90.82080202165406
20
158.43919511294416
40
2.5
0
LINE
8
0
6
CONTINUOUS
62
7
10
35.096034131978286
20
151.68921444548749
11
35.096034131978286
21
151.27189669741284
0
ARC
8
0
6
CONTINUOUS
62
7
10
37.846034131978286
20
145.93921444548749
40
5.9999999999999671
50
117.27961273933035
51
62.720387265814452
0
LINE
8
0
6
CONTINUOUS
62
7
10
40.596034131978286
20
151.27189669741284
11
40.596034131978286
21
151.68921444548749
0
ARC
8
0
6
CONTINUOUS
62
7
10
37.846034131978286
20
151.68921444548749
40
2.75
50
0
51
180
0
CIRCLE
8
0
6
CONTINUOUS
62
7
10
37.846034131978286
20
165.53921444548746
40
1
0
CIRCLE
8
0
6
CONTINUOUS
62
7
10
37.846034131978286
20
137.53921444548746
40
1
0
POLYLINE
8
0
6
CONTINUOUS
62
7
66
1
10
0
20
0
70
129
40
0
41
0
0
VERTEX
8
0
6
CONTINUOUS
62
7
10
47.846034131978286
20
135.03921444548746
0
VERTEX
8
0
6
CONTINUOUS
62
7
10
27.846034131978286
20
135.03921444548746
0
VERTEX
8
0
6
CONTINUOUS
62
7
10
27.846034131978286
20
168.03921444548746
0
VERTEX
8
0
6
CONTINUOUS
62
7
10
47.846034131978286
20
168.03921444548746
0
VERTEX
8
0
6
CONTINUOUS
62
7
10
47.846034131978286
20
135.03921444548746
0
SEQEND
0
CIRCLE
8
0
6
CONTINUOUS
62
7
10
90.820802023809108
20
147.43919511348292
40
1
0
CIRCLE
8
0
6
CONTINUOUS
62
7
10
90.820802023809108
20
147.43919511348292
40
2.5
0
LINE
8
Layer_1
6
CONTINUOUS
62
7
10
25.096034131978286
20
168.09787331952475
11
25.096034131978286
21
135.09787331952475
0
LINE
8
Layer_1
6
CONTINUOUS
62
7
10
56.353661978443533
20
150.56192524792488
11
80.35366197844354
21
150.56192524792488
0
ENDSEC
0
EOF
