0
SECTION
2
HEADER
9
$ANGDIR
70
0
9
$CHAMFERA
40
10
9
$CHAMFERB
40
10
9
$CLAYER
8
Layer_1
9
$EXTMAX
10
114.29707389542823
20
181.02216351064158
9
$EXTMIN
10
74.796826994025352
20
122.47427924226008
9
$LIMMAX
10
420
20
297
9
$LIMMIN
10
0
20
0
9
$LTSCALE
40
10
9
$PLINEGEN
70
0
9
$TEXTSIZE
40
20
9
$GRIDUNIT
10
10
20
10
9
$SNAPUNIT
10
1
20
1
0
ENDSEC
0
SECTION
2
TABLES
0
TABLE
2
STYLE
70
1
0
STYLE
2
STANDARD
70
0
40
0
41
1
50
0
71
0
42
0.20000000000000001
3
txt
4

0
ENDTAB
0
TABLE
2
LTYPE
70
14
0
LTYPE
2
CONTINUOUS
70
0
3
Solid line
72
65
73
0
40
0
0
LTYPE
2
DOT
70
0
3
............................................
72
65
73
2
40
0.25
49
0
49
-0.25
0
LTYPE
2
HIDDEN
70
0
3
_ _ _ _ _ _ _ _ _ _ _ _ _ _ _ _ _ _ _ _ _ _ 
72
65
73
2
40
0.375
49
0.25
49
-0.125
0
LTYPE
2
TSLONGDASH
70
0
3
__ __ __ __ __ __ __ __ __ __ __ __ __ __ _ 
72
65
73
2
40
1.28
49
1
49
-0.28000000000000003
0
LTYPE
2
TSDASHDOT
70
0
3
______ . ______ . ______ . ______ . ______ .
72
65
73
4
40
1.28
49
1
49
-0.14000000000000001
49
0
49
-0.14000000000000001
0
LTYPE
2
TSCENTER
70
0
3
______ _ ______ _ ______ _ ______ _ ______ _
72
65
73
4
40
2
49
1.5
49
-0.17999999999999999
49
0.14000000000000001
49
-0.17999999999999999
0
LTYPE
2
TSPHANTOM
70
0
3
_____ _ _ _____ _ _ _____ _ _ _____ _ _ ____
72
65
73
6
40
2.5
49
1.6299999999999999
49
-0.19
49
0.14999999999999999
49
-0.19
49
0.14999999999999999
49
-0.19
0
LTYPE
2
DASHED
70
0
3
__ __ __ __ __ __ __ __ __ __ __ __ __ __ __
72
65
73
2
40
0.75
49
0.5
49
-0.25
0
LTYPE
2
CENTER
70
0
3
____ _ ____ _ ____ _ ____ _ ____ _ ____ _ __
72
65
73
4
40
2
49
1.25
49
-0.25
49
0.25
49
-0.25
0
LTYPE
2
PHANTOM
70
0
3
_____ _ _ _____ _ _ _____ _ _ _____ _ _ ____
72
65
73
6
40
2.5
49
1.25
49
-0.25
49
0.25
49
-0.25
49
0.25
49
-0.25
0
LTYPE
2
DASHDOT
70
0
3
__ . __ . __ . __ . __ . __ . __ . __ . __ .
72
65
73
4
40
1
49
0.5
49
-0.25
49
0
49
-0.25
0
LTYPE
2
BORDER
70
0
3
__ __ . __ __ . __ __ . __ __ . __ __ . __ _
72
65
73
6
40
1.75
49
0.5
49
-0.25
49
0.5
49
-0.25
49
0
49
-0.25
0
LTYPE
2
DIVIDE
70
0
3
__ . . __ . . __ . . __ . . __ . . __ . . __
72
65
73
6
40
1.25
49
0.5
49
-0.25
49
0
49
-0.25
49
0
49
-0.25
0
ENDTAB
0
TABLE
2
LAYER
70
3
0
LAYER
2
Layer_1
70
0
62
7
6
CONTINUOUS
0
LAYER
2
Layer_2
70
0
62
7
6
CONTINUOUS
0
LAYER
2
Layer_3
70
0
62
7
6
CONTINUOUS
0
ENDTAB
0
ENDSEC
0
SECTION
2
ENTITIES
0
POLYLINE
8
Layer_1
6
CONTINUOUS
39
0.29999999999999999
62
7
66
1
10
0
20
0
70
129
40
0.29999999999999999
41
0.29999999999999999
0
VERTEX
8
Layer_1
6
CONTINUOUS
39
0.29999999999999999
62
7
10
87.746950444726792
20
142.89587039390085
0
VERTEX
8
Layer_1
6
CONTINUOUS
39
0.29999999999999999
62
7
10
101.34695044472679
20
142.89587039390085
0
VERTEX
8
Layer_1
6
CONTINUOUS
39
0.29999999999999999
62
7
10
101.34695044472679
20
153.89587039390085
0
VERTEX
8
Layer_1
6
CONTINUOUS
39
0.29999999999999999
62
7
10
87.746950444726792
20
153.89587039390085
0
VERTEX
8
Layer_1
6
CONTINUOUS
39
0.29999999999999999
62
7
10
87.746950444726792
20
142.89587039390085
0
SEQEND
0
LINE
8
Layer_1
6
CONTINUOUS
39
0.29999999999999999
62
7
10
108.54695044472678
20
159.09587039487056
11
108.5469504447268
21
137.69587039293114
0
LINE
8
Layer_1
6
CONTINUOUS
39
0.29999999999999999
62
7
10
113.52178636380313
20
130.58487800751428
11
113.52178636380312
21
122.97427924226103
0
LINE
8
Layer_1
6
CONTINUOUS
39
0.29999999999999999
62
7
10
80.546950444726804
20
159.09587039487059
11
80.546950444726804
21
137.69587039293111
0
LINE
8
Layer_1
6
CONTINUOUS
39
0.29999999999999999
62
7
10
82.546950444726804
20
161.09587039487056
11
106.54695044472675
21
161.09587039487056
0
ARC
8
Layer_1
6
CONTINUOUS
39
0.29999999999999999
62
7
10
82.546950444726804
20
159.09587039487056
40
2
50
90
51
180
0
ARC
8
Layer_1
6
CONTINUOUS
39
0.29999999999999999
62
7
10
106.54695044472676
20
159.09587039487056
40
2.0000000000000142
50
0
51
90
0
LINE
8
Layer_1
6
CONTINUOUS
39
0.29999999999999999
62
7
10
82.546950444726832
20
135.69587039293114
11
106.54695044472675
21
135.69587039293114
0
ARC
8
Layer_1
6
CONTINUOUS
39
0.29999999999999999
62
7
10
82.546950444726832
20
137.69587039293114
40
2.0000000000000284
50
180
51
270
0
ARC
8
Layer_1
6
CONTINUOUS
39
0.29999999999999999
62
7
10
106.54695044472673
20
137.69587039293114
40
2
50
270
51
0
0
LINE
8
Layer_1
6
CONTINUOUS
39
0.29999999999999999
62
7
10
77.572114525650477
20
132.58487800751428
11
111.5217863638031
21
132.58487800751428
0
ARC
8
Layer_1
6
CONTINUOUS
39
0.29999999999999999
62
7
10
111.52178636380309
20
130.58487800751428
40
2.0000000000000426
50
0
51
90
0
LINE
8
Layer_1
6
CONTINUOUS
39
0.29999999999999999
62
7
10
84.205153273435513
20
135.69587039293114
11
84.205153273435513
21
132.58487800751431
0
LINE
8
Layer_1
6
CONTINUOUS
39
0.29999999999999999
62
7
10
104.88874761601807
20
135.69587039293114
11
104.88874761601807
21
132.58487800751428
0
LINE
8
Layer_1
6
CONTINUOUS
39
0.29999999999999999
62
7
10
77.921888719376071
20
153.89587039478309
11
77.921888719376085
21
142.89587039478306
0
LINE
8
Layer_1
6
CONTINUOUS
39
0.29999999999999999
62
7
10
80.546950444726804
20
153.89587039454739
11
77.921888719376071
21
153.89587039478309
0
LINE
8
Layer_1
6
CONTINUOUS
39
0.29999999999999999
62
7
10
80.546950444726789
20
142.89587039454736
11
77.921888719376085
21
142.89587039478306
0
LINE
8
Layer_1
6
CONTINUOUS
39
0.29999999999999999
62
7
10
75.296826994025352
20
151.27080867002167
11
75.296826994025366
21
145.52093212048734
0
LINE
8
Layer_1
6
CONTINUOUS
39
0.29999999999999999
62
7
10
75.296826994025352
20
151.27080867002167
11
77.921888719376071
21
151.27080867002167
0
LINE
8
Layer_1
6
CONTINUOUS
39
0.29999999999999999
62
7
10
75.296826994025366
20
145.52093212048734
11
77.921888719376099
21
145.52093212048734
0
ARC
8
Layer_1
6
CONTINUOUS
39
0.29999999999999999
62
7
10
94.546950444726789
20
140.1244356802793
40
24.161975788175148
50
60.221511523146361
51
119.77848848199845
0
POLYLINE
8
Layer_1
6
CONTINUOUS
39
0.29999999999999999
62
7
66
1
10
0
20
0
70
128
40
0.29999999999999999
41
0.29999999999999999
0
VERTEX
8
Layer_1
6
CONTINUOUS
39
0.29999999999999999
62
7
10
99.048559417793783
20
163.86336132239637
0
VERTEX
8
Layer_1
6
CONTINUOUS
39
0.29999999999999999
62
7
10
103.4345353577594
20
176.55851572405382
0
SEQEND
0
POLYLINE
8
Layer_1
6
CONTINUOUS
39
0.29999999999999999
62
7
66
1
10
0
20
0
70
128
40
0.29999999999999999
41
0.29999999999999999
0
VERTEX
8
Layer_1
6
CONTINUOUS
39
0.29999999999999999
62
7
10
101.5441722794162
20
177.21160640078779
0
VERTEX
8
Layer_1
6
CONTINUOUS
39
0.29999999999999999
62
7
10
97.034368404264967
20
164.15803353584246
0
SEQEND
0
CIRCLE
8
Layer_1
6
CONTINUOUS
39
0.29999999999999999
62
7
10
103.05494693561374
20
178.5221635106424
40
2
0
LINE
8
Layer_1
6
CONTINUOUS
39
0.29999999999999999
62
7
10
111.17201217007751
20
153.89587039478303
11
111.17201217007749
21
142.89587039478306
0
LINE
8
Layer_1
6
CONTINUOUS
39
0.29999999999999999
62
7
10
108.54695044472678
20
153.89587039454739
11
111.17201217007751
21
153.89587039478303
0
LINE
8
Layer_1
6
CONTINUOUS
39
0.29999999999999999
62
7
10
108.54695044472679
20
142.89587039454736
11
111.17201217007749
21
142.89587039478306
0
LINE
8
Layer_1
6
CONTINUOUS
39
0.29999999999999999
62
7
10
113.79707389542823
20
151.27080867002167
11
113.79707389542821
21
145.52093212048734
0
LINE
8
Layer_1
6
CONTINUOUS
39
0.29999999999999999
62
7
10
113.79707389542823
20
151.27080867002167
11
111.17201217007751
21
151.27080867002167
0
LINE
8
Layer_1
6
CONTINUOUS
39
0.29999999999999999
62
7
10
113.79707389542821
20
145.52093212048734
11
111.17201217007748
21
145.52093212048734
0
POLYLINE
8
Layer_1
6
CONTINUOUS
39
0.29999999999999999
62
7
66
1
10
0
20
0
70
128
40
0.29999999999999999
41
0.29999999999999999
0
VERTEX
8
Layer_1
6
CONTINUOUS
39
0.29999999999999999
62
7
10
90.045341471659796
20
163.86336132239637
0
VERTEX
8
Layer_1
6
CONTINUOUS
39
0.29999999999999999
62
7
10
85.659365531694178
20
176.55851572405382
0
SEQEND
0
POLYLINE
8
Layer_1
6
CONTINUOUS
39
0.29999999999999999
62
7
66
1
10
0
20
0
70
128
40
0.29999999999999999
41
0.29999999999999999
0
VERTEX
8
Layer_1
6
CONTINUOUS
39
0.29999999999999999
62
7
10
87.549728610037377
20
177.21160640078773
0
VERTEX
8
Layer_1
6
CONTINUOUS
39
0.29999999999999999
62
7
10
92.059532485188612
20
164.15803353584246
0
SEQEND
0
CIRCLE
8
Layer_1
6
CONTINUOUS
39
0.29999999999999999
62
7
10
86.038953953839837
20
178.5221635106424
40
2
0
LINE
8
Layer_1
6
CONTINUOUS
39
0.29999999999999999
62
7
10
75.572114525650449
20
130.58487800751428
11
75.572114525650463
21
122.97427924226103
0
ARC
8
Layer_1
6
CONTINUOUS
39
0.29999999999999999
62
7
10
77.572114525650491
20
130.58487800751428
40
2
50
90
51
180
0
LINE
8
Layer_1
6
CONTINUOUS
39
0.29999999999999999
62
7
10
75.572114525650463
20
122.97427924226103
11
113.52178636380312
21
122.97427924226103
0
LINE
8
Layer_1
6
CONTINUOUS
62
1
10
111.52178636387043
20
133.08487800751431
11
105.38874761601808
21
133.08487800751428
0
LINE
8
Layer_1
6
CONTINUOUS
62
1
10
105.38874761601808
20
133.08487800751428
11
105.38874761601808
21
135.19587039293117
0
LINE
8
Layer_1
6
CONTINUOUS
62
1
10
105.38874761601808
20
135.19587039293117
11
106.5469504445696
21
135.19587039293114
0
ARC
8
Layer_1
6
CONTINUOUS
62
1
10
106.54695044472631
20
137.69587039293117
40
2.5000000000000284
50
270
51
0
0
LINE
8
Layer_1
6
CONTINUOUS
62
1
10
109.04695044472678
20
137.69587039270664
11
109.04695044472679
21
142.39587039459224
0
LINE
8
Layer_1
6
CONTINUOUS
62
1
10
109.04695044472679
20
142.39587039459224
11
111.17201217009995
21
142.39587039478306
0
ARC
8
Layer_1
6
CONTINUOUS
62
1
10
111.17201217007917
20
142.89587039478289
40
0.49999999999982947
50
270
51
0
0
LINE
8
Layer_1
6
CONTINUOUS
62
1
10
111.67201217007749
20
142.89587039478306
11
111.67201217007748
21
145.02093212048734
0
LINE
8
Layer_1
6
CONTINUOUS
62
1
10
111.67201217007748
20
145.02093212048734
11
113.79707389545067
21
145.02093212048734
0
ARC
8
Layer_1
6
CONTINUOUS
62
1
10
113.79707389542496
20
145.52093212048771
40
0.50000000000036948
50
270
51
0
0
LINE
8
Layer_1
6
CONTINUOUS
62
1
10
114.29707389542821
20
145.52093212048734
11
114.29707389542823
21
151.27080867002167
0
ARC
8
Layer_1
6
CONTINUOUS
62
1
10
113.79707389542826
20
151.27080867001982
40
0.49999999999997158
50
0
51
90
0
LINE
8
Layer_1
6
CONTINUOUS
62
1
10
113.79707389545068
20
151.77080867002167
11
111.67201217007751
21
151.77080867002167
0
LINE
8
Layer_1
6
CONTINUOUS
62
1
10
111.67201217007751
20
151.77080867002167
11
111.67201217007751
21
153.89587039478303
0
ARC
8
Layer_1
6
CONTINUOUS
62
1
10
111.17201217007758
20
153.89587039478113
40
0.49999999999992895
50
0
51
90
0
LINE
8
Layer_1
6
CONTINUOUS
62
1
10
111.17201217009996
20
154.39587039478303
11
109.04695044472679
21
154.39587039459227
0
LINE
8
Layer_1
6
CONTINUOUS
62
1
10
109.04695044472679
20
154.39587039459227
11
109.04695044472678
21
159.09587039487056
0
ARC
8
Layer_1
6
CONTINUOUS
62
1
10
106.54695044472638
20
159.09587039487005
40
2.5000000000003979
50
0
51
86.811375557149333
0
ARC
8
Layer_1
6
CONTINUOUS
62
1
10
94.546950444726733
20
140.12443568027933
40
24.661975788175152
50
60.513558450599376
51
77.920783457160823
0
LINE
8
Layer_1
6
CONTINUOUS
62
1
10
99.707810898197025
20
164.24037582691977
11
103.81962856763796
21
176.14198242474922
0
ARC
8
Layer_1
6
CONTINUOUS
62
1
10
103.05494693561326
20
178.52216351064178
40
2.4999999999993294
50
287.81067248333892
51
214.07087718951027
0
LINE
8
Layer_1
6
CONTINUOUS
62
1
10
100.98408395012301
20
177.12161843984967
11
96.690227566394739
21
164.69310298146343
0
ARC
8
Layer_1
6
CONTINUOUS
62
1
10
94.546950444726406
20
140.12443568027936
40
24.661975788175162
50
85.014355654763918
51
94.985644350379076
0
LINE
8
Layer_1
6
CONTINUOUS
62
1
10
92.40367332305884
20
164.69310298146343
11
88.109816939330614
21
177.1216184398495
0
ARC
8
Layer_1
6
CONTINUOUS
62
1
10
86.038953953839822
20
178.52216351064212
40
2.4999999999994662
50
325.92912280534222
51
252.18932751152943
0
LINE
8
Layer_1
6
CONTINUOUS
62
1
10
85.274272321815602
20
176.14198242474919
11
89.386089991256569
21
164.24037582691972
0
ARC
8
Layer_1
6
CONTINUOUS
62
1
10
94.546950444726775
20
140.12443568027928
40
24.661975788175141
50
102.07921654798375
51
119.48644155454049
0
ARC
8
Layer_1
6
CONTINUOUS
62
1
10
82.546950444727159
20
159.09587039487053
40
2.5000000000004108
50
93.188624447953202
51
180
0
LINE
8
Layer_1
6
CONTINUOUS
62
1
10
80.046950444726804
20
159.09587039500525
11
80.046950444726789
21
154.39587039459227
0
LINE
8
Layer_1
6
CONTINUOUS
62
1
10
80.046950444726789
20
154.39587039459227
11
77.921888719398524
21
154.39587039478309
0
ARC
8
Layer_1
6
CONTINUOUS
62
1
10
77.921888719376085
20
153.89587039478309
40
0.5
50
90
51
180
0
LINE
8
Layer_1
6
CONTINUOUS
62
1
10
77.421888719376071
20
153.89587039482799
11
77.421888719376085
21
151.77080867002167
0
LINE
8
Layer_1
6
CONTINUOUS
62
1
10
77.421888719376085
20
151.77080867002167
11
75.296826994047805
21
151.77080867002167
0
ARC
8
Layer_1
6
CONTINUOUS
62
1
10
75.296826994025423
20
151.27080867002175
40
0.49999999999991473
50
90
51
180
0
LINE
8
Layer_1
6
CONTINUOUS
62
1
10
74.796826994025352
20
151.27080867006657
11
74.796826994025366
21
145.52093212053225
0
ARC
8
Layer_1
6
CONTINUOUS
62
1
10
75.296826994025167
20
145.52093212048936
40
0.49999999999980105
50
180
51
270
0
LINE
8
Layer_1
6
CONTINUOUS
62
1
10
75.296826994047819
20
145.02093212048734
11
77.421888719376099
21
145.02093212048734
0
LINE
8
Layer_1
6
CONTINUOUS
62
1
10
77.421888719376099
20
145.02093212048734
11
77.421888719376085
21
142.89587039482797
0
ARC
8
Layer_1
6
CONTINUOUS
62
1
10
77.921888719376199
20
142.89587039478113
40
0.50000000000011369
50
180
51
270
0
LINE
8
Layer_1
6
CONTINUOUS
62
1
10
77.921888719398538
20
142.39587039478306
11
80.046950444726804
21
142.39587039459227
0
LINE
8
Layer_1
6
CONTINUOUS
62
1
10
80.046950444726804
20
142.39587039459227
11
80.046950444726804
21
137.69587039306583
0
ARC
8
Layer_1
6
CONTINUOUS
62
1
10
82.546950444727031
20
137.69587039293225
40
2.5000000000002274
50
180
51
270
0
LINE
8
Layer_1
6
CONTINUOUS
62
1
10
82.546950444569688
20
135.19587039293111
11
83.705153273435499
21
135.19587039293111
0
LINE
8
Layer_1
6
CONTINUOUS
62
1
10
83.705153273435499
20
135.19587039293111
11
83.705153273435513
21
133.08487800751431
0
LINE
8
Layer_1
6
CONTINUOUS
62
1
10
83.705153273435513
20
133.08487800751431
11
77.572114525717836
21
133.08487800751428
0
ARC
8
Layer_1
6
CONTINUOUS
62
1
10
77.572114525650903
20
130.58487800751402
40
2.5000000000002558
50
90
51
180
0
LINE
8
Layer_1
6
CONTINUOUS
62
1
10
75.072114525650477
20
130.58487800764897
11
75.072114525650463
21
122.97427924230593
0
ARC
8
Layer_1
6
CONTINUOUS
62
1
10
75.572114525650036
20
122.97427924225966
40
0.49999999999957367
50
180
51
270
0
LINE
8
Layer_1
6
CONTINUOUS
62
1
10
75.572114525672916
20
122.47427924226103
11
113.52178636382557
21
122.47427924226103
0
ARC
8
Layer_1
6
CONTINUOUS
62
1
10
113.52178636380215
20
122.9742792422619
40
0.50000000000086686
50
270
51
0
0
LINE
8
Layer_1
6
CONTINUOUS
62
1
10
114.02178636380312
20
122.97427924226103
11
114.02178636380313
21
130.58487800751428
0
ARC
8
Layer_1
6
CONTINUOUS
62
1
10
111.5217863638039
20
130.58487800751539
40
2.4999999999992326
50
0
51
90
0
POLYLINE
8
Layer_1
6
CONTINUOUS
62
1
66
1
10
0
20
0
70
129
40
0
41
0
0
VERTEX
8
Layer_1
6
CONTINUOUS
62
1
10
88.246950444726806
20
153.39587039390088
0
VERTEX
8
Layer_1
6
CONTINUOUS
62
1
10
100.84695044472679
20
153.39587039390088
0
VERTEX
8
Layer_1
6
CONTINUOUS
62
1
10
100.84695044472679
20
143.39587039390085
0
VERTEX
8
Layer_1
6
CONTINUOUS
62
1
10
88.246950444726806
20
143.39587039390085
0
VERTEX
8
Layer_1
6
CONTINUOUS
62
1
10
88.246950444726806
20
153.39587039390088
0
SEQEND
0
ENDSEC
0
EOF
